# xmcd
#
# Track frame offsets: 
#        150
#        28405
#        58712
#        96450
#        123360
#        141657
#
# Disc length: 2663 seconds
#
# Revision: 2
# Processed by: cddbd v1.5.1PL0 Copyright (c) Steve Scherf et al.
# Submitted via: ExactAudioCopy v0.95b3
#
DISCID=5e0a6506
DTITLE=Bobby Bland and B. B. King - Together Again ... Live
DYEAR=1976
DGENRE=Blues
TTITLE0=Let The Good Times Roll
TTITLE1=Medley: Stormy Monday Blues/Strange Things Happen
TTITLE2=Feel So Bad
TTITLE3=Medley:  Mother-In-Law Blues/Mean Old World
TTITLE4=Everday (I have the blues)
TTITLE5=Medley:  The Thrill Is Gone/ I Ain't Gonna Be The First To Cry
EXTD=
EXTT0=
EXTT1=
EXTT2=
EXTT3=
EXTT4=
EXTT5=
PLAYORDER=
